# xmcd
#
# Track frame offsets: 
#        150
#        7152
#        21385
#        36083
#        53708
#        70200
#        91844
#        108990
#        126035
#        143430
#        163385
#        181421
#        198303
#        214001
#        228349
#        241443
#
# Disc length: 3321 seconds
#
# Revision: 0
# Processed by: cddbd v1.5.2PL0 Copyright (c) Steve Scherf et al.
# Submitted via: ExactAudioCopy v0.95b4
#
DISCID=db0cf710
DTITLE=Veaceslav Busuioc - Trei trandafiri
DYEAR=2008
DGENRE=Pop
TTITLE0=Intro
TTITLE1=Baietelul tatei
TTITLE2=Hai, vino (remix)
TTITLE3=Unica sotia mea
TTITLE4=Prima dragoste
TTITLE5=Trei trandafiri
TTITLE6=Din prima intalnire
TTITLE7=Sus paharul, fratioare
TTITLE8=Mai badita bade
TTITLE9=Trece vremea
TTITLE10=Om bogat si om sarac
TTITLE11=Surioara
TTITLE12=Trei trandafiri (karaoke)
TTITLE13=Baietelul tatei (karaoke)
TTITLE14=Bonus
TTITLE15=Bonus 2
EXTD=
EXTT0=
EXTT1=
EXTT2=
EXTT3=
EXTT4=
EXTT5=
EXTT6=
EXTT7=
EXTT8=
EXTT9=
EXTT10=
EXTT11=
EXTT12=
EXTT13=
EXTT14=
EXTT15=
PLAYORDER=
